<svg width="350" height="150" viewBox="0 0 35 15" xmlns="http://www.w3.org/2000/svg" role="img" aria-label="Evently logo">
  <defs>
    <linearGradient id="eventlyGradient" x1="1" y1="2" x2="12" y2="13" gradientUnits="userSpaceOnUse">
      <stop offset="0%" stop-color="#7C3AED"/>
      <stop offset="100%" stop-color="#2563EB"/>
    </linearGradient>
  </defs>

  <!-- Calendar -->
  <rect x="1.5" y="2.5" width="10" height="9.5" rx="2" fill="none" stroke="url(#eventlyGradient)" stroke-width="0.8"/>
  <rect x="3" y="1" width="1.2" height="2.2" rx="0.5" fill="url(#eventlyGradient)"/>
  <rect x="8.8" y="1" width="1.2" height="2.2" rx="0.5" fill="url(#eventlyGradient)"/>

  <!-- Calendar dots -->
  <circle cx="4.3" cy="5" r="0.35" fill="#C4B5FD"/>
  <circle cx="6.5" cy="5" r="0.35" fill="#C4B5FD"/>
  <circle cx="8.7" cy="5" r="0.35" fill="#C4B5FD"/>
  <circle cx="4.3" cy="6.5" r="0.35" fill="#C4B5FD"/>
  <circle cx="6.5" cy="6.5" r="0.35" fill="#C4B5FD"/>
  <circle cx="8.7" cy="6.5" r="0.35" fill="#FB7185"/>

  <!-- People -->
  <circle cx="4.4" cy="8.6" r="0.75" fill="#7C3AED"/>
  <path d="M3.1 11.2c0-1 .55-1.8 1.3-1.8s1.3.8 1.3 1.8v.8H3.1z" fill="#7C3AED"/>

  <circle cx="6.7" cy="8.3" r="0.85" fill="#2563EB"/>
  <path d="M5.2 12c0-1.2.65-2.1 1.5-2.1s1.5.9 1.5 2.1v.9h-3z" fill="#2563EB"/>

  <circle cx="9" cy="8.6" r="0.75" fill="#FB7185"/>
  <path d="M7.9 12c0-1 .5-1.75 1.1-1.75S10.1 11 10.1 12v.7H7.9z" fill="#FB7185"/>

  <!-- Text -->
  <text x="14" y="9.7" font-family="Arial, Helvetica, sans-serif" font-size="5" font-weight="700" fill="#2563EB">
    Evently
  </text>
</svg>